<svg id="calendar" xmlns="http://www.w3.org/2000/svg" xmlns:xlink="http://www.w3.org/1999/xlink" width="29" height="35" viewBox="0 0 29 35">
  <defs>
    <filter id="Rectangle_1074" x="3" y="10" width="26" height="25" filterUnits="userSpaceOnUse">
      <feOffset dy="3" input="SourceAlpha"/>
      <feGaussianBlur stdDeviation="3" result="blur"/>
      <feFlood flood-opacity="0.161"/>
      <feComposite operator="in" in2="blur"/>
      <feComposite in="SourceGraphic"/>
    </filter>
    <filter id="Rectangle_1075" x="3" y="4" width="26" height="25" filterUnits="userSpaceOnUse">
      <feOffset dy="-3" input="SourceAlpha"/>
      <feGaussianBlur stdDeviation="3" result="blur-2"/>
      <feFlood flood-opacity="0.161"/>
      <feComposite operator="in" in2="blur-2"/>
      <feComposite in="SourceGraphic"/>
    </filter>
  </defs>
  <path id="Path_38" data-name="Path 38" d="M20.906,1.978H18.539V.75C18.539.336,18.414,0,18,0s-.574.336-.574.75V1.978L6.62,1.875V.75C6.62.336,6.414,0,6,0s-.63.336-.63.75V1.875H3.094A3.245,3.245,0,0,0,0,4.969V20.906A3.1,3.1,0,0,0,3.094,24H20.906A3.1,3.1,0,0,0,24,20.906V4.969A3.2,3.2,0,0,0,20.906,1.978ZM3.094,3.044H5.37V4.125c0,.414.216.75.63.75s.62-.336.62-.75V3.044H17.426V4.125c0,.414.159.75.574.75s.539-.336.539-.75V3.044h2.367a2.241,2.241,0,0,1,2.026,1.994v1.75L1.091,6.719V4.875A2.049,2.049,0,0,1,3.094,3.044ZM20.906,22.8H3.094a2.274,2.274,0,0,1-2-1.9V7.847H22.932V20.906A2.3,2.3,0,0,1,20.906,22.8Z" transform="translate(0)" fill="#ff4c43"/>
  <rect id="Rectangle_15" data-name="Rectangle 15" width="4" height="2" rx="1" transform="translate(4 10)" fill="#ff4c43"/>
  <rect id="Rectangle_19" data-name="Rectangle 19" width="4" height="2" rx="1" transform="translate(4 14)" fill="#ff4c43"/>
  <rect id="Rectangle_22" data-name="Rectangle 22" width="4" height="2" rx="1" transform="translate(4 18)" fill="#ff4c43"/>
  <rect id="Rectangle_16" data-name="Rectangle 16" width="4" height="2" rx="1" transform="translate(10 10)" fill="#ff4c43"/>
  <rect id="Rectangle_18" data-name="Rectangle 18" width="4" height="2" rx="1" transform="translate(10 14)" fill="#ff4c43"/>
  <rect id="Rectangle_21" data-name="Rectangle 21" width="4" height="2" rx="1" transform="translate(10 18)" fill="#ff4c43"/>
  <rect id="Rectangle_17" data-name="Rectangle 17" width="4" height="2" rx="1" transform="translate(16 10)" fill="#ff4c43"/>
  <rect id="Rectangle_20" data-name="Rectangle 20" width="4" height="2" rx="1" transform="translate(16 14)" fill="#ff4c43"/>
  <rect id="Rectangle_23" data-name="Rectangle 23" width="4" height="2" rx="1" transform="translate(16 18)" fill="#ff4c43"/>
  <g id="Caneldar" transform="translate(-8 -537)" opacity="0">
    <g id="BG" transform="translate(20 553)">
      <g transform="matrix(1, 0, 0, 1, -12, -16)" filter="url(#Rectangle_1074)">
        <rect id="Rectangle_1074-2" data-name="Rectangle 1074" width="8" height="7" rx="3.5" transform="translate(12 16)" fill="#fff"/>
      </g>
      <g transform="matrix(1, 0, 0, 1, -12, -16)" filter="url(#Rectangle_1075)">
        <rect id="Rectangle_1075-2" data-name="Rectangle 1075" width="8" height="7" rx="3.5" transform="translate(12 16)" fill="#fff"/>
      </g>
    </g>
    <rect id="Rectangle_1076" data-name="Rectangle 1076" width="1" transform="translate(27 556)" fill="#ffa9a9"/>
    <path id="Path_2816" data-name="Path 2816" d="M186.306,2637.141l-.206.206.206.206" transform="translate(-165.481 -2083.481)" fill="none" stroke="#707070" stroke-linecap="round" stroke-linejoin="round" stroke-width="2"/>
    <path id="Path_2817" data-name="Path 2817" d="M186.1,2637.141l.206.206-.206.206" transform="translate(-158.924 -2083.481)" fill="none" stroke="#707070" stroke-linecap="round" stroke-linejoin="round" stroke-width="2"/>
    <text id="October_2022" data-name="October 2022" transform="translate(23 555)" font-size="1" font-family="Mulish-SemiBold, Mulish" font-weight="600"><tspan x="0" y="0">October 2022</tspan></text>
    <text id="Su" transform="translate(21 555)" font-size="1" font-family="Mulish-SemiBold, Mulish" font-weight="600"><tspan x="0" y="0">Su</tspan></text>
    <text id="Mo" transform="translate(22 555)" font-size="1" font-family="Mulish-SemiBold, Mulish" font-weight="600"><tspan x="0" y="0">Mo</tspan></text>
    <text id="Tu" transform="translate(23 555)" font-size="1" font-family="Mulish-SemiBold, Mulish" font-weight="600"><tspan x="0" y="0">Tu</tspan></text>
    <text id="We" transform="translate(24 555)" font-size="1" font-family="Mulish-SemiBold, Mulish" font-weight="600"><tspan x="0" y="0">We</tspan></text>
    <text id="Th" transform="translate(25 555)" font-size="1" font-family="Mulish-SemiBold, Mulish" font-weight="600"><tspan x="0" y="0">Th</tspan></text>
    <text id="Fr" transform="translate(26 555)" font-size="1" font-family="Mulish-SemiBold, Mulish" font-weight="600"><tspan x="0" y="0">Fr</tspan></text>
    <text id="Sa" transform="translate(27 555)" font-size="1" font-family="Mulish-SemiBold, Mulish" font-weight="600"><tspan x="0" y="0">Sa</tspan></text>
    <text id="_1" data-name="1" transform="translate(27 556)" fill="#7b7a7a" font-size="1" font-family="Mulish-SemiBold, Mulish" font-weight="600"><tspan x="0" y="0">1</tspan></text>
    <text id="_2" data-name="2" transform="translate(21 557)" fill="#7b7a7a" font-size="1" font-family="Mulish-SemiBold, Mulish" font-weight="600"><tspan x="0" y="0">2</tspan></text>
    <text id="_3" data-name="3" transform="translate(22 557)" fill="#7b7a7a" font-size="1" font-family="Mulish-SemiBold, Mulish" font-weight="600"><tspan x="0" y="0">3</tspan></text>
    <text id="_4" data-name="4" transform="translate(23 557)" fill="#7b7a7a" font-size="1" font-family="Mulish-SemiBold, Mulish" font-weight="600"><tspan x="0" y="0">4</tspan></text>
    <text id="_5" data-name="5" transform="translate(24 557)" fill="#7b7a7a" font-size="1" font-family="Mulish-SemiBold, Mulish" font-weight="600"><tspan x="0" y="0">5</tspan></text>
    <text id="_6" data-name="6" transform="translate(25 557)" fill="#7b7a7a" font-size="1" font-family="Mulish-SemiBold, Mulish" font-weight="600"><tspan x="0" y="0">6</tspan></text>
    <text id="_7" data-name="7" transform="translate(26 557)" fill="#7b7a7a" font-size="1" font-family="Mulish-SemiBold, Mulish" font-weight="600"><tspan x="0" y="0">7</tspan></text>
    <text id="_8" data-name="8" transform="translate(27 557)" font-size="1" font-family="Mulish-SemiBold, Mulish" font-weight="600"><tspan x="0" y="0">8</tspan></text>
    <text id="_9" data-name="9" transform="translate(21 558)" font-size="1" font-family="Mulish-SemiBold, Mulish" font-weight="600"><tspan x="0" y="0">9</tspan></text>
    <text id="_10" data-name="10" transform="translate(22 558)" font-size="1" font-family="Mulish-SemiBold, Mulish" font-weight="600"><tspan x="0" y="0">10</tspan></text>
    <text id="_11" data-name="11" transform="translate(23 558)" font-size="1" font-family="Mulish-SemiBold, Mulish" font-weight="600"><tspan x="0" y="0">11</tspan></text>
    <text id="_21" data-name="21" transform="translate(26 558)" font-size="1" font-family="Mulish-SemiBold, Mulish" font-weight="600"><tspan x="0" y="0">21</tspan></text>
    <text id="_22" data-name="22" transform="translate(27 558)" font-size="1" font-family="Mulish-SemiBold, Mulish" font-weight="600"><tspan x="0" y="0">22</tspan></text>
    <text id="_23" data-name="23" transform="translate(21 559)" font-size="1" font-family="Mulish-SemiBold, Mulish" font-weight="600"><tspan x="0" y="0">23</tspan></text>
    <text id="_24" data-name="24" transform="translate(22 559)" font-size="1" font-family="Mulish-SemiBold, Mulish" font-weight="600"><tspan x="0" y="0">24</tspan></text>
    <text id="_25" data-name="25" transform="translate(23 559)" font-size="1" font-family="Mulish-SemiBold, Mulish" font-weight="600"><tspan x="0" y="0">25</tspan></text>
    <text id="_26" data-name="26" transform="translate(24 559)" font-size="1" font-family="Mulish-SemiBold, Mulish" font-weight="600"><tspan x="0" y="0">26</tspan></text>
    <text id="_27" data-name="27" transform="translate(25 559)" font-size="1" font-family="Mulish-SemiBold, Mulish" font-weight="600"><tspan x="0" y="0">27</tspan></text>
    <text id="_28" data-name="28" transform="translate(26 559)" font-size="1" font-family="Mulish-SemiBold, Mulish" font-weight="600"><tspan x="0" y="0">28</tspan></text>
    <text id="_29" data-name="29" transform="translate(27 559)" font-size="1" font-family="Mulish-SemiBold, Mulish" font-weight="600"><tspan x="0" y="0">29</tspan></text>
    <text id="_30" data-name="30" transform="translate(21 560)" font-size="1" font-family="Mulish-SemiBold, Mulish" font-weight="600"><tspan x="0" y="0">30</tspan></text>
    <text id="_31" data-name="31" transform="translate(22 560)" font-size="1" font-family="Mulish-SemiBold, Mulish" font-weight="600"><tspan x="0" y="0">31</tspan></text>
    <text id="_12" data-name="12" transform="translate(24 558)" font-size="1" font-family="Mulish-SemiBold, Mulish" font-weight="600"><tspan x="0" y="0">12</tspan></text>
    <text id="_13" data-name="13" transform="translate(25 558)" font-size="1" font-family="Mulish-SemiBold, Mulish" font-weight="600"><tspan x="0" y="0">13</tspan></text>
    <text id="_14" data-name="14" transform="translate(26 558)" font-size="1" font-family="Mulish-SemiBold, Mulish" font-weight="600"><tspan x="0" y="0">14</tspan></text>
    <text id="_15" data-name="15" transform="translate(27 558)" font-size="1" font-family="Mulish-SemiBold, Mulish" font-weight="600"><tspan x="0" y="0">15</tspan></text>
    <text id="_16" data-name="16" transform="translate(21 558)" font-size="1" font-family="Mulish-SemiBold, Mulish" font-weight="600"><tspan x="0" y="0">16</tspan></text>
    <text id="_17" data-name="17" transform="translate(22 558)" font-size="1" font-family="Mulish-SemiBold, Mulish" font-weight="600"><tspan x="0" y="0">17</tspan></text>
    <text id="_18" data-name="18" transform="translate(23 558)" font-size="1" font-family="Mulish-SemiBold, Mulish" font-weight="600"><tspan x="0" y="0">18</tspan></text>
    <text id="_19" data-name="19" transform="translate(24 558)" font-size="1" font-family="Mulish-SemiBold, Mulish" font-weight="600"><tspan x="0" y="0">19</tspan></text>
    <text id="_20" data-name="20" transform="translate(25 558)" font-size="1" font-family="Mulish-SemiBold, Mulish" font-weight="600"><tspan x="0" y="0">20</tspan></text>
  </g>
</svg>
